<svg width="32" height="32" viewBox="0 0 32 32" fill="none" xmlns="http://www.w3.org/2000/svg">
  <!-- Background circle with gradient -->
  <circle cx="16" cy="16" r="16" fill="url(#gradient)" />
  
  <!-- Sound waves -->
  <path d="M8 12C8 10.8954 8.89543 10 10 10H12C13.1046 10 14 10.8954 14 12V20C14 21.1046 13.1046 22 12 22H10C8.89543 22 8 21.1046 8 20V12Z" fill="white" opacity="0.9"/>
  
  <!-- Sound wave rings -->
  <path d="M17 14C17 13.4477 17.4477 13 18 13C18.5523 13 19 13.4477 19 14V18C19 18.5523 18.5523 19 18 19C17.4477 19 17 18.5523 17 18V14Z" fill="white" opacity="0.7"/>
  
  <path d="M21 12C21 11.4477 21.4477 11 22 11C22.5523 11 23 11.4477 23 12V20C23 20.5523 22.5523 21 22 21C21.4477 21 21 20.5523 21 20V12Z" fill="white" opacity="0.5"/>
  
  <path d="M25 15C25 14.4477 25.4477 14 26 14C26.5523 14 27 14.4477 27 15V17C27 17.5523 26.5523 18 26 18C25.4477 18 25 17.5523 25 17V15Z" fill="white" opacity="0.3"/>
  
  <!-- Heart symbol for healing -->
  <path d="M11 8C9.34315 8 8 9.34315 8 11C8 12.6569 9.34315 14 11 14C11.5523 14 12 13.5523 12 13C12 12.4477 11.5523 12 11 12C10.4477 12 10 11.5523 10 11C10 10.4477 10.4477 10 11 10C11.5523 10 12 9.55228 12 9C12 8.44772 11.5523 8 11 8Z" fill="#FF6B9D" opacity="0.8"/>
  
  <!-- Gradient definition -->
  <defs>
    <linearGradient id="gradient" x1="0%" y1="0%" x2="100%" y2="100%">
      <stop offset="0%" style="stop-color:#8B5CF6;stop-opacity:1" />
      <stop offset="50%" style="stop-color:#EC4899;stop-opacity:1" />
      <stop offset="100%" style="stop-color:#F59E0B;stop-opacity:1" />
    </linearGradient>
  </defs>
</svg>